<?xml version="1.0" encoding="UTF-8" standalone="no"?>
<!DOCTYPE svg PUBLIC "-//W3C//DTD SVG 1.1//EN"
 "http://www.w3.org/Graphics/SVG/1.1/DTD/svg11.dtd">
<!-- Generated by graphviz version 2.40.1 (20161225.0304)
 -->
<!-- Title: %3 Pages: 1 -->
<svg width="1562pt" height="692pt"
 viewBox="0.00 0.00 1561.94 692.00" xmlns="http://www.w3.org/2000/svg" xmlns:xlink="http://www.w3.org/1999/xlink">
<g id="graph0" class="graph" transform="scale(1 1) rotate(0) translate(4 688)">
<title>%3</title>
<polygon fill="#ffffff" stroke="transparent" points="-4,4 -4,-688 1557.9394,-688 1557.9394,4 -4,4"/>
<!-- [root] data.terraform_remote_state.folder -->
<g id="node1" class="node">
<title>[root] data.terraform_remote_state.folder</title>
<polygon fill="none" stroke="#000000" points="1198.4394,-108 991.4394,-108 991.4394,-72 1198.4394,-72 1198.4394,-108"/>
<text text-anchor="middle" x="1094.9394" y="-86.3" font-family="Times,serif" font-size="14.00" fill="#000000">data.terraform_remote_state.folder</text>
</g>
<!-- [root] provider.terraform -->
<g id="node18" class="node">
<title>[root] provider.terraform</title>
<polygon fill="none" stroke="#000000" points="1094.9394,-36 986.5183,-18 1094.9394,0 1203.3606,-18 1094.9394,-36"/>
<text text-anchor="middle" x="1094.9394" y="-14.3" font-family="Times,serif" font-size="14.00" fill="#000000">provider.terraform</text>
</g>
<!-- [root] data.terraform_remote_state.folder&#45;&gt;[root] provider.terraform -->
<g id="edge1" class="edge">
<title>[root] data.terraform_remote_state.folder&#45;&gt;[root] provider.terraform</title>
<path fill="none" stroke="#000000" d="M1094.9394,-71.8314C1094.9394,-64.131 1094.9394,-54.9743 1094.9394,-46.4166"/>
<polygon fill="#000000" stroke="#000000" points="1098.4395,-46.4132 1094.9394,-36.4133 1091.4395,-46.4133 1098.4395,-46.4132"/>
</g>
<!-- [root] google_compute_attached_disk.default -->
<g id="node2" class="node">
<title>[root] google_compute_attached_disk.default</title>
<polygon fill="none" stroke="#000000" points="893.9394,-540 663.9394,-540 663.9394,-504 893.9394,-504 893.9394,-540"/>
<text text-anchor="middle" x="778.9394" y="-518.3" font-family="Times,serif" font-size="14.00" fill="#000000">google_compute_attached_disk.default</text>
</g>
<!-- [root] google_compute_instance.backend -->
<g id="node6" class="node">
<title>[root] google_compute_instance.backend</title>
<polygon fill="none" stroke="#000000" points="698.4394,-324 491.4394,-324 491.4394,-288 698.4394,-288 698.4394,-324"/>
<text text-anchor="middle" x="594.9394" y="-302.3" font-family="Times,serif" font-size="14.00" fill="#000000">google_compute_instance.backend</text>
</g>
<!-- [root] google_compute_attached_disk.default&#45;&gt;[root] google_compute_instance.backend -->
<g id="edge2" class="edge">
<title>[root] google_compute_attached_disk.default&#45;&gt;[root] google_compute_instance.backend</title>
<path fill="none" stroke="#000000" d="M783.539,-503.8798C790.6622,-471.2511 800.313,-402.102 766.9394,-360 756.6761,-347.0524 725.6235,-335.5997 692.6749,-326.6111"/>
<polygon fill="#000000" stroke="#000000" points="693.4427,-323.1939 682.8803,-324.0222 691.6539,-329.9615 693.4427,-323.1939"/>
</g>
<!-- [root] google_compute_disk.data -->
<g id="node3" class="node">
<title>[root] google_compute_disk.data</title>
<polygon fill="none" stroke="#000000" points="759.4394,-252 596.4394,-252 596.4394,-216 759.4394,-216 759.4394,-252"/>
<text text-anchor="middle" x="677.9394" y="-230.3" font-family="Times,serif" font-size="14.00" fill="#000000">google_compute_disk.data</text>
</g>
<!-- [root] google_project.project_immobilier -->
<g id="node10" class="node">
<title>[root] google_project.project_immobilier</title>
<polygon fill="none" stroke="#000000" points="799.4394,-180 592.4394,-180 592.4394,-144 799.4394,-144 799.4394,-180"/>
<text text-anchor="middle" x="695.9394" y="-158.3" font-family="Times,serif" font-size="14.00" fill="#000000">google_project.project_immobilier</text>
</g>
<!-- [root] google_compute_disk.data&#45;&gt;[root] google_project.project_immobilier -->
<g id="edge3" class="edge">
<title>[root] google_compute_disk.data&#45;&gt;[root] google_project.project_immobilier</title>
<path fill="none" stroke="#000000" d="M682.4816,-215.8314C684.4279,-208.0463 686.7462,-198.7729 688.9058,-190.1347"/>
<polygon fill="#000000" stroke="#000000" points="692.3062,-190.9636 691.3361,-180.4133 685.5152,-189.2658 692.3062,-190.9636"/>
</g>
<!-- [root] google_compute_firewall.default -->
<g id="node4" class="node">
<title>[root] google_compute_firewall.default</title>
<polygon fill="none" stroke="#000000" points="1318.4394,-540 1121.4394,-540 1121.4394,-504 1318.4394,-504 1318.4394,-540"/>
<text text-anchor="middle" x="1219.9394" y="-518.3" font-family="Times,serif" font-size="14.00" fill="#000000">google_compute_firewall.default</text>
</g>
<!-- [root] google_compute_network.immobilier&#45;pf_network -->
<g id="node7" class="node">
<title>[root] google_compute_network.immobilier&#45;pf_network</title>
<polygon fill="none" stroke="#000000" points="1067.9394,-252 777.9394,-252 777.9394,-216 1067.9394,-216 1067.9394,-252"/>
<text text-anchor="middle" x="922.9394" y="-230.3" font-family="Times,serif" font-size="14.00" fill="#000000">google_compute_network.immobilier&#45;pf_network</text>
</g>
<!-- [root] google_compute_firewall.default&#45;&gt;[root] google_compute_network.immobilier&#45;pf_network -->
<g id="edge4" class="edge">
<title>[root] google_compute_firewall.default&#45;&gt;[root] google_compute_network.immobilier&#45;pf_network</title>
<path fill="none" stroke="#000000" d="M1217.8488,-503.5383C1213.54,-471.8546 1201.3857,-406.0931 1170.9394,-360 1134.8442,-305.3547 1067.4003,-273.2469 1011.9482,-255.133"/>
<polygon fill="#000000" stroke="#000000" points="1012.6889,-251.6965 1002.099,-252.0197 1010.5791,-258.371 1012.6889,-251.6965"/>
</g>
<!-- [root] google_compute_global_address.immobilier&#45;pf_ip_address -->
<g id="node5" class="node">
<title>[root] google_compute_global_address.immobilier&#45;pf_ip_address</title>
<polygon fill="none" stroke="#000000" points="1057.4394,-324 716.4394,-324 716.4394,-288 1057.4394,-288 1057.4394,-324"/>
<text text-anchor="middle" x="886.9394" y="-302.3" font-family="Times,serif" font-size="14.00" fill="#000000">google_compute_global_address.immobilier&#45;pf_ip_address</text>
</g>
<!-- [root] google_compute_global_address.immobilier&#45;pf_ip_address&#45;&gt;[root] google_compute_network.immobilier&#45;pf_network -->
<g id="edge5" class="edge">
<title>[root] google_compute_global_address.immobilier&#45;pf_ip_address&#45;&gt;[root] google_compute_network.immobilier&#45;pf_network</title>
<path fill="none" stroke="#000000" d="M896.0238,-287.8314C900.0009,-279.8771 904.7549,-270.369 909.1533,-261.5723"/>
<polygon fill="#000000" stroke="#000000" points="912.3911,-262.9228 913.7328,-252.4133 906.1301,-259.7923 912.3911,-262.9228"/>
</g>
<!-- [root] google_compute_instance.backend&#45;&gt;[root] google_compute_disk.data -->
<g id="edge6" class="edge">
<title>[root] google_compute_instance.backend&#45;&gt;[root] google_compute_disk.data</title>
<path fill="none" stroke="#000000" d="M615.8839,-287.8314C626.0086,-279.0485 638.3171,-268.3712 649.2942,-258.8489"/>
<polygon fill="#000000" stroke="#000000" points="651.7413,-261.3595 657.0017,-252.1628 647.1544,-256.0718 651.7413,-261.3595"/>
</g>
<!-- [root] google_compute_instance.backend&#45;&gt;[root] google_compute_network.immobilier&#45;pf_network -->
<g id="edge7" class="edge">
<title>[root] google_compute_instance.backend&#45;&gt;[root] google_compute_network.immobilier&#45;pf_network</title>
<path fill="none" stroke="#000000" d="M677.2843,-287.9243C724.0647,-277.6554 782.7456,-264.7743 831.0227,-254.1768"/>
<polygon fill="#000000" stroke="#000000" points="831.8282,-257.5834 840.8452,-252.0207 830.3273,-250.7462 831.8282,-257.5834"/>
</g>
<!-- [root] var.salt_key_pub -->
<g id="node21" class="node">
<title>[root] var.salt_key_pub</title>
<ellipse fill="none" stroke="#000000" cx="484.9394" cy="-234" rx="93.6835" ry="18"/>
<text text-anchor="middle" x="484.9394" y="-230.3" font-family="Times,serif" font-size="14.00" fill="#000000">[root] var.salt_key_pub</text>
</g>
<!-- [root] google_compute_instance.backend&#45;&gt;[root] var.salt_key_pub -->
<g id="edge8" class="edge">
<title>[root] google_compute_instance.backend&#45;&gt;[root] var.salt_key_pub</title>
<path fill="none" stroke="#000000" d="M567.1818,-287.8314C552.9232,-278.4984 535.3965,-267.0264 520.1917,-257.0742"/>
<polygon fill="#000000" stroke="#000000" points="521.8337,-253.9659 511.5498,-251.4177 518,-259.8228 521.8337,-253.9659"/>
</g>
<!-- [root] google_compute_network.immobilier&#45;pf_network&#45;&gt;[root] google_project.project_immobilier -->
<g id="edge9" class="edge">
<title>[root] google_compute_network.immobilier&#45;pf_network&#45;&gt;[root] google_project.project_immobilier</title>
<path fill="none" stroke="#000000" d="M865.9508,-215.9243C834.6487,-205.9959 795.6476,-193.6255 762.8988,-183.2382"/>
<polygon fill="#000000" stroke="#000000" points="763.5418,-179.7704 752.9516,-180.0831 761.4254,-186.4428 763.5418,-179.7704"/>
</g>
<!-- [root] google_dns_managed_zone.immo -->
<g id="node8" class="node">
<title>[root] google_dns_managed_zone.immo</title>
<polygon fill="none" stroke="#000000" points="1161.9394,-396 957.9394,-396 957.9394,-360 1161.9394,-360 1161.9394,-396"/>
<text text-anchor="middle" x="1059.9394" y="-374.3" font-family="Times,serif" font-size="14.00" fill="#000000">google_dns_managed_zone.immo</text>
</g>
<!-- [root] google_dns_managed_zone.immo&#45;&gt;[root] google_compute_network.immobilier&#45;pf_network -->
<g id="edge10" class="edge">
<title>[root] google_dns_managed_zone.immo&#45;&gt;[root] google_compute_network.immobilier&#45;pf_network</title>
<path fill="none" stroke="#000000" d="M1067.6741,-359.6689C1074.5891,-340.12 1081.5794,-309.1255 1066.9394,-288 1058.6388,-276.0222 1031.2346,-264.4408 1002.5278,-255.0956"/>
<polygon fill="#000000" stroke="#000000" points="1003.358,-251.6874 992.7683,-252.0147 1001.2508,-258.3627 1003.358,-251.6874"/>
</g>
<!-- [root] google_dns_record_set.postgres -->
<g id="node9" class="node">
<title>[root] google_dns_record_set.postgres</title>
<polygon fill="none" stroke="#000000" points="1103.4394,-540 912.4394,-540 912.4394,-504 1103.4394,-504 1103.4394,-540"/>
<text text-anchor="middle" x="1007.9394" y="-518.3" font-family="Times,serif" font-size="14.00" fill="#000000">google_dns_record_set.postgres</text>
</g>
<!-- [root] google_dns_record_set.postgres&#45;&gt;[root] google_dns_managed_zone.immo -->
<g id="edge11" class="edge">
<title>[root] google_dns_record_set.postgres&#45;&gt;[root] google_dns_managed_zone.immo</title>
<path fill="none" stroke="#000000" d="M1014.5253,-503.7623C1023.4728,-478.9846 1039.547,-434.4714 1049.975,-405.5939"/>
<polygon fill="#000000" stroke="#000000" points="1053.3025,-406.6839 1053.4071,-396.0896 1046.7186,-404.3064 1053.3025,-406.6839"/>
</g>
<!-- [root] google_sql_database_instance.master -->
<g id="node14" class="node">
<title>[root] google_sql_database_instance.master</title>
<polygon fill="none" stroke="#000000" points="682.4394,-468 461.4394,-468 461.4394,-432 682.4394,-432 682.4394,-468"/>
<text text-anchor="middle" x="571.9394" y="-446.3" font-family="Times,serif" font-size="14.00" fill="#000000">google_sql_database_instance.master</text>
</g>
<!-- [root] google_dns_record_set.postgres&#45;&gt;[root] google_sql_database_instance.master -->
<g id="edge12" class="edge">
<title>[root] google_dns_record_set.postgres&#45;&gt;[root] google_sql_database_instance.master</title>
<path fill="none" stroke="#000000" d="M912.3757,-505.584C909.1928,-505.048 906.0405,-504.5188 902.9394,-504 833.3019,-492.3509 755.3684,-479.6214 692.6231,-469.449"/>
<polygon fill="#000000" stroke="#000000" points="693.118,-465.9836 682.6869,-467.8389 691.9983,-472.8934 693.118,-465.9836"/>
</g>
<!-- [root] google_project.project_immobilier&#45;&gt;[root] data.terraform_remote_state.folder -->
<g id="edge13" class="edge">
<title>[root] google_project.project_immobilier&#45;&gt;[root] data.terraform_remote_state.folder</title>
<path fill="none" stroke="#000000" d="M795.8518,-143.9707C853.3499,-133.5951 925.6917,-120.5409 984.8252,-109.8702"/>
<polygon fill="#000000" stroke="#000000" points="985.7305,-113.2635 994.95,-108.0432 984.4874,-106.3747 985.7305,-113.2635"/>
</g>
<!-- [root] provider.google -->
<g id="node16" class="node">
<title>[root] provider.google</title>
<polygon fill="none" stroke="#000000" points="490.9394,-108 396.0927,-90 490.9394,-72 585.7862,-90 490.9394,-108"/>
<text text-anchor="middle" x="490.9394" y="-86.3" font-family="Times,serif" font-size="14.00" fill="#000000">provider.google</text>
</g>
<!-- [root] google_project.project_immobilier&#45;&gt;[root] provider.google -->
<g id="edge14" class="edge">
<title>[root] google_project.project_immobilier&#45;&gt;[root] provider.google</title>
<path fill="none" stroke="#000000" d="M644.4739,-143.9243C610.4014,-131.9574 566.2277,-116.4427 534.0153,-105.1291"/>
<polygon fill="#000000" stroke="#000000" points="535.0216,-101.773 524.4268,-101.7614 532.7019,-108.3775 535.0216,-101.773"/>
</g>
<!-- [root] random_id.id -->
<g id="node20" class="node">
<title>[root] random_id.id</title>
<polygon fill="none" stroke="#000000" points="356.9394,-108 266.9394,-108 266.9394,-72 356.9394,-72 356.9394,-108"/>
<text text-anchor="middle" x="311.9394" y="-86.3" font-family="Times,serif" font-size="14.00" fill="#000000">random_id.id</text>
</g>
<!-- [root] google_project.project_immobilier&#45;&gt;[root] random_id.id -->
<g id="edge15" class="edge">
<title>[root] google_project.project_immobilier&#45;&gt;[root] random_id.id</title>
<path fill="none" stroke="#000000" d="M592.2801,-145.5472C532.1457,-135.5881 455.0641,-122.1132 386.9394,-108 380.4202,-106.6494 373.6044,-105.1445 366.8529,-103.5962"/>
<polygon fill="#000000" stroke="#000000" points="367.5831,-100.1726 357.0495,-101.3095 365.993,-106.9896 367.5831,-100.1726"/>
</g>
<!-- [root] var.billing_account -->
<g id="node22" class="node">
<title>[root] var.billing_account</title>
<ellipse fill="none" stroke="#000000" cx="704.9394" cy="-90" rx="101.2821" ry="18"/>
<text text-anchor="middle" x="704.9394" y="-86.3" font-family="Times,serif" font-size="14.00" fill="#000000">[root] var.billing_account</text>
</g>
<!-- [root] google_project.project_immobilier&#45;&gt;[root] var.billing_account -->
<g id="edge16" class="edge">
<title>[root] google_project.project_immobilier&#45;&gt;[root] var.billing_account</title>
<path fill="none" stroke="#000000" d="M698.2105,-143.8314C699.1731,-136.131 700.3177,-126.9743 701.3874,-118.4166"/>
<polygon fill="#000000" stroke="#000000" points="704.8703,-118.7702 702.6378,-108.4133 697.9244,-117.9019 704.8703,-118.7702"/>
</g>
<!-- [root] google_project_services.project -->
<g id="node11" class="node">
<title>[root] google_project_services.project</title>
<polygon fill="none" stroke="#000000" points="1525.4394,-540 1336.4394,-540 1336.4394,-504 1525.4394,-504 1525.4394,-540"/>
<text text-anchor="middle" x="1430.9394" y="-518.3" font-family="Times,serif" font-size="14.00" fill="#000000">google_project_services.project</text>
</g>
<!-- [root] google_project_services.project&#45;&gt;[root] google_project.project_immobilier -->
<g id="edge17" class="edge">
<title>[root] google_project_services.project&#45;&gt;[root] google_project.project_immobilier</title>
<path fill="none" stroke="#000000" d="M1410.9932,-503.6161C1385.5879,-478.0935 1344.9394,-429.2496 1344.9394,-378 1344.9394,-378 1344.9394,-378 1344.9394,-306 1344.9394,-180.3519 1199.21,-244.9374 1076.9394,-216 988.2794,-195.0171 885.9565,-181.0655 809.6889,-172.6085"/>
<polygon fill="#000000" stroke="#000000" points="809.8986,-169.1107 799.5773,-171.5025 809.1374,-176.0692 809.8986,-169.1107"/>
</g>
<!-- [root] google_service_networking_connection.postgres_vpc_connection -->
<g id="node12" class="node">
<title>[root] google_service_networking_connection.postgres_vpc_connection</title>
<polygon fill="none" stroke="#000000" points="757.9394,-396 383.9394,-396 383.9394,-360 757.9394,-360 757.9394,-396"/>
<text text-anchor="middle" x="570.9394" y="-374.3" font-family="Times,serif" font-size="14.00" fill="#000000">google_service_networking_connection.postgres_vpc_connection</text>
</g>
<!-- [root] google_service_networking_connection.postgres_vpc_connection&#45;&gt;[root] google_compute_global_address.immobilier&#45;pf_ip_address -->
<g id="edge18" class="edge">
<title>[root] google_service_networking_connection.postgres_vpc_connection&#45;&gt;[root] google_compute_global_address.immobilier&#45;pf_ip_address</title>
<path fill="none" stroke="#000000" d="M650.2717,-359.9243C695.2465,-349.6769 751.6386,-336.828 798.0941,-326.2432"/>
<polygon fill="#000000" stroke="#000000" points="798.8761,-329.6548 807.8487,-324.0207 797.321,-322.8298 798.8761,-329.6548"/>
</g>
<!-- [root] google_sql_database.immo&#45;db -->
<g id="node13" class="node">
<title>[root] google_sql_database.immo&#45;db</title>
<polygon fill="none" stroke="#000000" points="495.9394,-540 311.9394,-540 311.9394,-504 495.9394,-504 495.9394,-540"/>
<text text-anchor="middle" x="403.9394" y="-518.3" font-family="Times,serif" font-size="14.00" fill="#000000">google_sql_database.immo&#45;db</text>
</g>
<!-- [root] google_sql_database.immo&#45;db&#45;&gt;[root] google_sql_database_instance.master -->
<g id="edge19" class="edge">
<title>[root] google_sql_database.immo&#45;db&#45;&gt;[root] google_sql_database_instance.master</title>
<path fill="none" stroke="#000000" d="M446.3329,-503.8314C468.9018,-494.159 496.8316,-482.1891 520.6191,-471.9944"/>
<polygon fill="#000000" stroke="#000000" points="522.0381,-475.1943 529.8508,-468.038 519.2806,-468.7602 522.0381,-475.1943"/>
</g>
<!-- [root] google_sql_database_instance.master&#45;&gt;[root] google_service_networking_connection.postgres_vpc_connection -->
<g id="edge20" class="edge">
<title>[root] google_sql_database_instance.master&#45;&gt;[root] google_service_networking_connection.postgres_vpc_connection</title>
<path fill="none" stroke="#000000" d="M571.6871,-431.8314C571.5802,-424.131 571.453,-414.9743 571.3341,-406.4166"/>
<polygon fill="#000000" stroke="#000000" points="574.8338,-406.3637 571.1952,-396.4133 567.8345,-406.4609 574.8338,-406.3637"/>
</g>
<!-- [root] random_id.db_name_suffix -->
<g id="node19" class="node">
<title>[root] random_id.db_name_suffix</title>
<polygon fill="none" stroke="#000000" points="322.9394,-396 154.9394,-396 154.9394,-360 322.9394,-360 322.9394,-396"/>
<text text-anchor="middle" x="238.9394" y="-374.3" font-family="Times,serif" font-size="14.00" fill="#000000">random_id.db_name_suffix</text>
</g>
<!-- [root] google_sql_database_instance.master&#45;&gt;[root] random_id.db_name_suffix -->
<g id="edge21" class="edge">
<title>[root] google_sql_database_instance.master&#45;&gt;[root] random_id.db_name_suffix</title>
<path fill="none" stroke="#000000" d="M488.3393,-431.9243C440.8458,-421.6554 381.2704,-408.7743 332.2573,-398.1768"/>
<polygon fill="#000000" stroke="#000000" points="332.7989,-394.7131 322.2851,-396.0207 331.3196,-401.555 332.7989,-394.7131"/>
</g>
<!-- [root] google_sql_user.user -->
<g id="node15" class="node">
<title>[root] google_sql_user.user</title>
<polygon fill="none" stroke="#000000" points="645.4394,-540 514.4394,-540 514.4394,-504 645.4394,-504 645.4394,-540"/>
<text text-anchor="middle" x="579.9394" y="-518.3" font-family="Times,serif" font-size="14.00" fill="#000000">google_sql_user.user</text>
</g>
<!-- [root] google_sql_user.user&#45;&gt;[root] google_sql_database_instance.master -->
<g id="edge22" class="edge">
<title>[root] google_sql_user.user&#45;&gt;[root] google_sql_database_instance.master</title>
<path fill="none" stroke="#000000" d="M577.9207,-503.8314C577.0651,-496.131 576.0477,-486.9743 575.0969,-478.4166"/>
<polygon fill="#000000" stroke="#000000" points="578.5684,-477.9656 573.9854,-468.4133 571.6112,-478.7386 578.5684,-477.9656"/>
</g>
<!-- [root] var.region -->
<g id="node27" class="node">
<title>[root] var.region</title>
<ellipse fill="none" stroke="#000000" cx="490.9394" cy="-18" rx="69.5877" ry="18"/>
<text text-anchor="middle" x="490.9394" y="-14.3" font-family="Times,serif" font-size="14.00" fill="#000000">[root] var.region</text>
</g>
<!-- [root] provider.google&#45;&gt;[root] var.region -->
<g id="edge38" class="edge">
<title>[root] provider.google&#45;&gt;[root] var.region</title>
<path fill="none" stroke="#000000" d="M490.9394,-71.8314C490.9394,-64.131 490.9394,-54.9743 490.9394,-46.4166"/>
<polygon fill="#000000" stroke="#000000" points="494.4395,-46.4132 490.9394,-36.4133 487.4395,-46.4133 494.4395,-46.4132"/>
</g>
<!-- [root] provider.random -->
<g id="node17" class="node">
<title>[root] provider.random</title>
<polygon fill="none" stroke="#000000" points="281.9394,-36 182.9009,-18 281.9394,0 380.978,-18 281.9394,-36"/>
<text text-anchor="middle" x="281.9394" y="-14.3" font-family="Times,serif" font-size="14.00" fill="#000000">provider.random</text>
</g>
<!-- [root] random_id.db_name_suffix&#45;&gt;[root] provider.random -->
<g id="edge42" class="edge">
<title>[root] random_id.db_name_suffix&#45;&gt;[root] provider.random</title>
<path fill="none" stroke="#000000" d="M238.9394,-359.8146C238.9394,-332.4983 238.9394,-279.25 238.9394,-234 238.9394,-234 238.9394,-234 238.9394,-162 238.9394,-119.2895 256.522,-72.3204 269.2008,-44.0032"/>
<polygon fill="#000000" stroke="#000000" points="272.4343,-45.3491 273.444,-34.8025 266.0777,-42.4175 272.4343,-45.3491"/>
</g>
<!-- [root] random_id.id&#45;&gt;[root] provider.random -->
<g id="edge43" class="edge">
<title>[root] random_id.id&#45;&gt;[root] provider.random</title>
<path fill="none" stroke="#000000" d="M304.3692,-71.8314C300.9019,-63.51 296.7261,-53.4881 292.9224,-44.3591"/>
<polygon fill="#000000" stroke="#000000" points="296.0691,-42.8109 288.9921,-34.9263 289.6075,-45.5032 296.0691,-42.8109"/>
</g>
<!-- [root] meta.count&#45;boundary (count boundary fixup) -->
<g id="node23" class="node">
<title>[root] meta.count&#45;boundary (count boundary fixup)</title>
<ellipse fill="none" stroke="#000000" cx="629.9394" cy="-594" rx="193.0657" ry="18"/>
<text text-anchor="middle" x="629.9394" y="-590.3" font-family="Times,serif" font-size="14.00" fill="#000000">[root] meta.count&#45;boundary (count boundary fixup)</text>
</g>
<!-- [root] meta.count&#45;boundary (count boundary fixup)&#45;&gt;[root] google_compute_attached_disk.default -->
<g id="edge23" class="edge">
<title>[root] meta.count&#45;boundary (count boundary fixup)&#45;&gt;[root] google_compute_attached_disk.default</title>
<path fill="none" stroke="#000000" d="M666.7709,-576.2022C686.5892,-566.6256 711.2336,-554.7169 732.3705,-544.5031"/>
<polygon fill="#000000" stroke="#000000" points="734.0157,-547.5954 741.4967,-540.0931 730.97,-541.2927 734.0157,-547.5954"/>
</g>
<!-- [root] meta.count&#45;boundary (count boundary fixup)&#45;&gt;[root] google_compute_firewall.default -->
<g id="edge24" class="edge">
<title>[root] meta.count&#45;boundary (count boundary fixup)&#45;&gt;[root] google_compute_firewall.default</title>
<path fill="none" stroke="#000000" d="M763.9624,-581.0257C858.477,-571.3997 988.2691,-557.2257 1111.4465,-540.1727"/>
<polygon fill="#000000" stroke="#000000" points="1112.017,-543.6271 1121.4386,-538.781 1111.0513,-536.6941 1112.017,-543.6271"/>
</g>
<!-- [root] meta.count&#45;boundary (count boundary fixup)&#45;&gt;[root] google_dns_record_set.postgres -->
<g id="edge25" class="edge">
<title>[root] meta.count&#45;boundary (count boundary fixup)&#45;&gt;[root] google_dns_record_set.postgres</title>
<path fill="none" stroke="#000000" d="M715.2413,-577.752C770.9211,-567.1463 843.992,-553.2281 903.1947,-541.9514"/>
<polygon fill="#000000" stroke="#000000" points="904.1557,-545.3313 913.3242,-540.022 902.8459,-538.455 904.1557,-545.3313"/>
</g>
<!-- [root] meta.count&#45;boundary (count boundary fixup)&#45;&gt;[root] google_project_services.project -->
<g id="edge26" class="edge">
<title>[root] meta.count&#45;boundary (count boundary fixup)&#45;&gt;[root] google_project_services.project</title>
<path fill="none" stroke="#000000" d="M767.9129,-581.4011C789.3431,-579.5322 811.234,-577.6738 831.9394,-576 1048.9104,-558.4602 1106.8347,-566.7963 1326.1907,-540.1515"/>
<polygon fill="#000000" stroke="#000000" points="1326.9203,-543.5884 1336.4204,-538.898 1326.0689,-536.6404 1326.9203,-543.5884"/>
</g>
<!-- [root] meta.count&#45;boundary (count boundary fixup)&#45;&gt;[root] google_sql_database.immo&#45;db -->
<g id="edge27" class="edge">
<title>[root] meta.count&#45;boundary (count boundary fixup)&#45;&gt;[root] google_sql_database.immo&#45;db</title>
<path fill="none" stroke="#000000" d="M575.5192,-576.6626C543.8979,-566.5885 503.8174,-553.8195 470.3479,-543.1567"/>
<polygon fill="#000000" stroke="#000000" points="471.2347,-539.7659 460.6441,-540.0652 469.1098,-546.4356 471.2347,-539.7659"/>
</g>
<!-- [root] meta.count&#45;boundary (count boundary fixup)&#45;&gt;[root] google_sql_user.user -->
<g id="edge28" class="edge">
<title>[root] meta.count&#45;boundary (count boundary fixup)&#45;&gt;[root] google_sql_user.user</title>
<path fill="none" stroke="#000000" d="M617.3223,-575.8314C611.6222,-567.6232 604.7732,-557.7606 598.5035,-548.7323"/>
<polygon fill="#000000" stroke="#000000" points="601.3052,-546.6306 592.7264,-540.4133 595.5556,-550.6234 601.3052,-546.6306"/>
</g>
<!-- [root] output.project_id -->
<g id="node24" class="node">
<title>[root] output.project_id</title>
<ellipse fill="none" stroke="#000000" cx="349.9394" cy="-450" rx="93.6835" ry="18"/>
<text text-anchor="middle" x="349.9394" y="-446.3" font-family="Times,serif" font-size="14.00" fill="#000000">[root] output.project_id</text>
</g>
<!-- [root] meta.count&#45;boundary (count boundary fixup)&#45;&gt;[root] output.project_id -->
<g id="edge29" class="edge">
<title>[root] meta.count&#45;boundary (count boundary fixup)&#45;&gt;[root] output.project_id</title>
<path fill="none" stroke="#000000" d="M449.2903,-587.5682C303.4845,-580.4633 118.77,-566.3569 94.9394,-540 84.2089,-528.1318 84.8656,-516.4305 94.9394,-504 100.6284,-496.9802 198.4998,-477.6963 271.3002,-464.1863"/>
<polygon fill="#000000" stroke="#000000" points="272.197,-467.5799 281.3941,-462.3202 270.9244,-460.6965 272.197,-467.5799"/>
</g>
<!-- [root] var.project_name -->
<g id="node25" class="node">
<title>[root] var.project_name</title>
<ellipse fill="none" stroke="#000000" cx="198.9394" cy="-522" rx="94.7833" ry="18"/>
<text text-anchor="middle" x="198.9394" y="-518.3" font-family="Times,serif" font-size="14.00" fill="#000000">[root] var.project_name</text>
</g>
<!-- [root] meta.count&#45;boundary (count boundary fixup)&#45;&gt;[root] var.project_name -->
<g id="edge30" class="edge">
<title>[root] meta.count&#45;boundary (count boundary fixup)&#45;&gt;[root] var.project_name</title>
<path fill="none" stroke="#000000" d="M534.0401,-578.3633C468.8505,-567.6848 380.6653,-553.1438 302.9394,-540 295.1041,-538.675 286.9389,-537.2824 278.7804,-535.883"/>
<polygon fill="#000000" stroke="#000000" points="279.3032,-532.4217 268.8548,-534.1769 278.1174,-539.3205 279.3032,-532.4217"/>
</g>
<!-- [root] output.project_id&#45;&gt;[root] google_project.project_immobilier -->
<g id="edge31" class="edge">
<title>[root] output.project_id&#45;&gt;[root] google_project.project_immobilier</title>
<path fill="none" stroke="#000000" d="M346.0494,-431.7611C337.8702,-387.9251 324.1035,-275.8605 381.9394,-216 409.3428,-187.6374 503.6435,-174.1172 581.8125,-167.7045"/>
<polygon fill="#000000" stroke="#000000" points="582.5422,-171.1579 592.2363,-166.883 581.9922,-164.1796 582.5422,-171.1579"/>
</g>
<!-- [root] provider.google (close) -->
<g id="node26" class="node">
<title>[root] provider.google (close)</title>
<ellipse fill="none" stroke="#000000" cx="956.9394" cy="-594" rx="115.8798" ry="18"/>
<text text-anchor="middle" x="956.9394" y="-590.3" font-family="Times,serif" font-size="14.00" fill="#000000">[root] provider.google (close)</text>
</g>
<!-- [root] provider.google (close)&#45;&gt;[root] google_compute_attached_disk.default -->
<g id="edge32" class="edge">
<title>[root] provider.google (close)&#45;&gt;[root] google_compute_attached_disk.default</title>
<path fill="none" stroke="#000000" d="M915.2064,-577.1192C890.6796,-567.1983 859.4061,-554.5483 833.0067,-543.8699"/>
<polygon fill="#000000" stroke="#000000" points="834.1054,-540.5389 823.5226,-540.0336 831.4805,-547.0281 834.1054,-540.5389"/>
</g>
<!-- [root] provider.google (close)&#45;&gt;[root] google_compute_firewall.default -->
<g id="edge33" class="edge">
<title>[root] provider.google (close)&#45;&gt;[root] google_compute_firewall.default</title>
<path fill="none" stroke="#000000" d="M1014.3309,-578.2883C1052.3905,-567.8689 1102.7473,-554.083 1144.0991,-542.7624"/>
<polygon fill="#000000" stroke="#000000" points="1145.139,-546.1066 1153.8599,-540.0902 1143.2906,-539.355 1145.139,-546.1066"/>
</g>
<!-- [root] provider.google (close)&#45;&gt;[root] google_dns_record_set.postgres -->
<g id="edge34" class="edge">
<title>[root] provider.google (close)&#45;&gt;[root] google_dns_record_set.postgres</title>
<path fill="none" stroke="#000000" d="M969.8089,-575.8314C975.623,-567.6232 982.6091,-557.7606 989.0041,-548.7323"/>
<polygon fill="#000000" stroke="#000000" points="991.9726,-550.5966 994.8967,-540.4133 986.2604,-546.5505 991.9726,-550.5966"/>
</g>
<!-- [root] provider.google (close)&#45;&gt;[root] google_project_services.project -->
<g id="edge35" class="edge">
<title>[root] provider.google (close)&#45;&gt;[root] google_project_services.project</title>
<path fill="none" stroke="#000000" d="M1044.0012,-582.0415C1116.902,-571.8629 1223.9503,-556.5337 1326.4762,-540.2144"/>
<polygon fill="#000000" stroke="#000000" points="1327.0599,-543.6656 1336.3827,-538.6321 1325.9558,-536.7532 1327.0599,-543.6656"/>
</g>
<!-- [root] provider.google (close)&#45;&gt;[root] google_sql_database.immo&#45;db -->
<g id="edge36" class="edge">
<title>[root] provider.google (close)&#45;&gt;[root] google_sql_database.immo&#45;db</title>
<path fill="none" stroke="#000000" d="M873.2796,-581.5634C859.4792,-579.6238 845.3157,-577.7012 831.9394,-576 690.5825,-558.0223 651.9559,-560.5501 506.3952,-540.0081"/>
<polygon fill="#000000" stroke="#000000" points="506.5832,-536.4996 496.1896,-538.5551 505.5964,-543.4298 506.5832,-536.4996"/>
</g>
<!-- [root] provider.google (close)&#45;&gt;[root] google_sql_user.user -->
<g id="edge37" class="edge">
<title>[root] provider.google (close)&#45;&gt;[root] google_sql_user.user</title>
<path fill="none" stroke="#000000" d="M876.8942,-581.0017C818.2663,-571.1759 736.5619,-556.8511 655.6076,-540.0801"/>
<polygon fill="#000000" stroke="#000000" points="656.2443,-536.6376 645.7404,-538.0228 654.8155,-543.4903 656.2443,-536.6376"/>
</g>
<!-- [root] provider.random (close) -->
<g id="node28" class="node">
<title>[root] provider.random (close)</title>
<ellipse fill="none" stroke="#000000" cx="118.9394" cy="-450" rx="118.8789" ry="18"/>
<text text-anchor="middle" x="118.9394" y="-446.3" font-family="Times,serif" font-size="14.00" fill="#000000">[root] provider.random (close)</text>
</g>
<!-- [root] provider.random (close)&#45;&gt;[root] random_id.db_name_suffix -->
<g id="edge39" class="edge">
<title>[root] provider.random (close)&#45;&gt;[root] random_id.db_name_suffix</title>
<path fill="none" stroke="#000000" d="M148.2947,-432.3868C163.7506,-423.1133 182.9149,-411.6147 199.6354,-401.5824"/>
<polygon fill="#000000" stroke="#000000" points="201.86,-404.3294 208.6342,-396.1832 198.2585,-398.3269 201.86,-404.3294"/>
</g>
<!-- [root] provider.random (close)&#45;&gt;[root] random_id.id -->
<g id="edge40" class="edge">
<title>[root] provider.random (close)&#45;&gt;[root] random_id.id</title>
<path fill="none" stroke="#000000" d="M119.1466,-431.8149C119.4396,-404.4989 119.9394,-351.2511 119.9394,-306 119.9394,-306 119.9394,-306 119.9394,-234 119.9394,-164.874 200.575,-124.8664 257.3333,-105.2678"/>
<polygon fill="#000000" stroke="#000000" points="258.5448,-108.5534 266.924,-102.0696 256.3303,-101.9129 258.5448,-108.5534"/>
</g>
<!-- [root] provider.terraform (close) -->
<g id="node29" class="node">
<title>[root] provider.terraform (close)</title>
<ellipse fill="none" stroke="#000000" cx="1253.9394" cy="-162" rx="125.3778" ry="18"/>
<text text-anchor="middle" x="1253.9394" y="-158.3" font-family="Times,serif" font-size="14.00" fill="#000000">[root] provider.terraform (close)</text>
</g>
<!-- [root] provider.terraform (close)&#45;&gt;[root] data.terraform_remote_state.folder -->
<g id="edge41" class="edge">
<title>[root] provider.terraform (close)&#45;&gt;[root] data.terraform_remote_state.folder</title>
<path fill="none" stroke="#000000" d="M1215.855,-144.7542C1194.3762,-135.028 1167.3016,-122.7678 1144.2199,-112.3157"/>
<polygon fill="#000000" stroke="#000000" points="1145.4853,-109.0466 1134.932,-108.1098 1142.5977,-115.4233 1145.4853,-109.0466"/>
</g>
<!-- [root] root -->
<g id="node30" class="node">
<title>[root] root</title>
<ellipse fill="none" stroke="#000000" cx="792.9394" cy="-666" rx="47.3916" ry="18"/>
<text text-anchor="middle" x="792.9394" y="-662.3" font-family="Times,serif" font-size="14.00" fill="#000000">[root] root</text>
</g>
<!-- [root] root&#45;&gt;[root] meta.count&#45;boundary (count boundary fixup) -->
<g id="edge44" class="edge">
<title>[root] root&#45;&gt;[root] meta.count&#45;boundary (count boundary fixup)</title>
<path fill="none" stroke="#000000" d="M761.8967,-652.2879C738.5133,-641.959 705.9937,-627.5945 679.089,-615.7102"/>
<polygon fill="#000000" stroke="#000000" points="680.3924,-612.4598 669.8308,-611.6207 677.564,-618.8629 680.3924,-612.4598"/>
</g>
<!-- [root] root&#45;&gt;[root] provider.google (close) -->
<g id="edge45" class="edge">
<title>[root] root&#45;&gt;[root] provider.google (close)</title>
<path fill="none" stroke="#000000" d="M824.1726,-652.2879C848.0321,-641.813 881.3454,-627.1876 908.6328,-615.2078"/>
<polygon fill="#000000" stroke="#000000" points="910.2585,-618.3166 918.008,-611.0919 907.4445,-611.9071 910.2585,-618.3166"/>
</g>
<!-- [root] root&#45;&gt;[root] provider.random (close) -->
<g id="edge46" class="edge">
<title>[root] root&#45;&gt;[root] provider.random (close)</title>
<path fill="none" stroke="#000000" d="M745.4817,-665.2468C600.4155,-661.8335 167.6452,-643.0393 83.9394,-540 68.746,-521.2973 81.646,-495.2257 95.8828,-475.9552"/>
<polygon fill="#000000" stroke="#000000" points="98.7883,-477.9219 102.2043,-467.8929 93.2797,-473.6027 98.7883,-477.9219"/>
</g>
<!-- [root] root&#45;&gt;[root] provider.terraform (close) -->
<g id="edge47" class="edge">
<title>[root] root&#45;&gt;[root] provider.terraform (close)</title>
<path fill="none" stroke="#000000" d="M839.3978,-662.1699C1004.6222,-647.9357 1553.9394,-595.114 1553.9394,-522 1553.9394,-522 1553.9394,-522 1553.9394,-306 1553.9394,-255.2569 1412.6822,-206.3492 1324.0265,-180.6508"/>
<polygon fill="#000000" stroke="#000000" points="1324.8653,-177.2504 1314.288,-177.8597 1322.9367,-183.9795 1324.8653,-177.2504"/>
</g>
</g>
</svg>
